<?xml version="1.0" encoding="utf-8"?>
<!-- Generator: Adobe Illustrator 24.1.1, SVG Export Plug-In . SVG Version: 6.00 Build 0)  -->
<svg version="1.1" id="Layer_1" xmlns="http://www.w3.org/2000/svg" xmlns:xlink="http://www.w3.org/1999/xlink" x="0px" y="0px"
	 viewBox="0 0 225 225" style="enable-background:new 0 0 225 225;" xml:space="preserve">
<style type="text/css">
	.st0{fill:#FFFFFF;}
	.st1{fill:#3D5B9A;}
</style>
<rect x="71.2" y="20.7" class="st0" width="129.4" height="204.3"/>
<g>
	<path class="st1" d="M155.5,225c0-29.2,0-57.7,0-86.9c9.5,0,19,0,28.9,0c1.5-11.5,3-22.5,4.5-34.3c-11.2,0-22.1,0-33.3,0
		c0-9.5-0.5-18.3,0.1-27.1c0.5-6.8,4.5-9.3,11.7-9.5c7.3-0.2,14.7-0.8,22.3-1.2c0-10.4,0-20.3,0-30.8c-15.4-1-31.1-4-46.2,2.7
		c-17.4,7.8-23.1,22.9-23.6,40.6c-0.3,8.1,0,16.2,0,24.9c-9.7,0-19,0-28.8,0c0,11.6,0,22.7,0,34.4c9.5,0,18.9,0,28.6,0
		c0,29.2,0,57.8,0,87.1c-1.7,0-3.4,0-5.1,0c-33,0-65.9,0-98.9,0C4.8,225,0,220.2,0,209.5c0-64.7,0-129.3,0-194C0,4.7,4.6,0,15.5,0
		c64.7,0,129.3,0,194,0C220.2,0,225,4.8,225,15.6c0,64.7,0,129.3,0,194c0,10.4-5,15.4-15.2,15.4C191.9,225,173.9,225,155.5,225z"/>
</g>
</svg>
