<?xml version="1.0" encoding="utf-8"?>
<!-- Generator: Adobe Illustrator 24.0.2, SVG Export Plug-In . SVG Version: 6.00 Build 0)  -->
<svg version="1.1" id="Layer_1" xmlns="http://www.w3.org/2000/svg" xmlns:xlink="http://www.w3.org/1999/xlink" x="0px" y="0px"
	 viewBox="0 0 1224 677" style="enable-background:new 0 0 1224 677;" xml:space="preserve">
<style type="text/css">
	.st0{fill:#FFFFFF;stroke:#FFFFFF;stroke-width:25.4829;}
	.st1{fill:#BE1E2D;}
	.st2{stroke:#FFFFFF;stroke-width:5.403;}
	.st3{fill:#2B3990;}
	.st4{fill:#FFFFFF;stroke:#FFFFFF;stroke-width:20.7553;}
	.st5{fill:#FFFFFF;stroke:#FFFFFF;stroke-width:26.8498;}
	.st6{fill:#FFFFFF;stroke:#FFFFFF;stroke-width:24.0637;}
	.st7{fill:none;}
	.st8{fill:#BE1E2D;stroke:#FFFFFF;stroke-width:4.8037;}
	.st9{fill:none;stroke:#FFFFFF;stroke-width:3.843;}
	.st10{fill:#BE1E2D;stroke:#FFFFFF;stroke-width:5.7645;}
	.st11{fill:none;stroke:#FFFFFF;stroke-width:4.8037;}
</style>
<g>
	<path class="st0" d="M574.1,503.5c0,12.1-4.4,21-13.2,26.8c-7,4.6-15.9,7-26.8,7c-2.8,0-5.5-0.2-8.1-0.5l-18.1,0.5v31.5l7.2,0.5
		l-2,14.9L490,580l0.5-12.3l3.8,0.2V468l36.9-1.5c11.1-0.4,20.7,2.1,28.6,7.6C569.3,480.8,574.1,490.6,574.1,503.5z M560.5,503.5
		c0-7.8-3.4-13.5-10.2-17.1c-5.1-2.8-11.3-4-18.5-3.7l-23.8,0.8v37.7l18.6-0.5c0.9,0.1,3,0.3,6.2,0.5
		C551.3,521.5,560.5,515.6,560.5,503.5z"/>
	<path class="st0" d="M642.4,517.5l-0.8,12.9l-23.2-4.5l3.9-7.9l4.2-0.2c0-1,0-2,0-3.1c0-12-2.3-18.1-6.8-18.3
		c-6.2-0.2-12.2,3.2-17.8,10.3c-5,6.3-8.3,13.3-10.1,21l-1.2,55.8l9.1-1l-2.8,12.5l-22.8,1.9l-0.8-11.7l3.8-0.5l2-94.3h-3.3
		l-1.8-10.2l24.8-2.7l-2.6,11.5l-3.7,0.3v6.2c7.6-10.7,16.8-15.8,27.6-15.4c7.2,0.3,12.5,4.3,16,12c2.6,5.9,3.9,13.4,3.9,22.5
		c0,1,0,1.9,0,2.9H642.4z"/>
	<path class="st0" d="M659.3,479.6c-1.9,0-3.8-0.3-5.6-1c-3.4-1.1-6.3-2.9-8.5-5.4s-3.3-5.1-3.3-7.8c0-3.1,1.2-5.5,3.8-7.1
		c2.1-1.4,4.5-2.1,7.3-2.1c1.8,0,3.7,0.3,5.6,0.8c3.4,1.2,6.3,3,8.5,5.6c2.2,2.5,3.3,5.2,3.3,7.8c0,3-1.3,5.4-4,7.1
		C664.4,478.9,662,479.6,659.3,479.6z M669.6,587.9l-23.7,0.5l-0.4-12.5h4.6l-1.2-75.3l-5.8,2.1l1.9-10.5l17.8-2.1l-0.3,5.7
		l1.2,80.8h5.2L669.6,587.9z"/>
	<path class="st0" d="M729.8,593.8l-22.3,4l-0.3-16.2h2.7l0.8-62.1c0-5.4-0.4-10.3-1.2-14.9c-0.9-5.5-2.4-9-4.3-10.5
		c-4.5,0-8.5,3.4-12,10c-2.9,5.5-4.9,11.6-5.9,18.1l0.4,52.8h3.3l0.5,13.2l-21.7-2.1l1.1-11.1h3.3l-0.4-90.2H670l-1.5-12.3l22.4-0.1
		l-0.9,11.1h-2.6v3.7c4.9-6.2,10.9-9.4,17.9-9.4c7.2,0,12.5,5.2,15.9,15.7c2.4,7.4,3.4,16.1,3.2,26.2l-0.8,61.4h3.9L729.8,593.8z"/>
	<path class="st0" d="M796.8,545.7l-4,1.1c0,1.2,0,2.5,0,3.9c0.4,13.1-1.6,23.4-6.1,30.7c-4,6.6-9.2,9.9-15.8,9.9
		c-7.3,0-13.8-3.9-19.4-11.8c-6.2-8.6-9.3-19.7-9.4-33.1l-0.8-54.3h-10.9v-16.2h10.9v-14.6h-4.1l-0.4-9.5l21.7-4.2l0.4,13.7l-4,0.2
		v14.4l20.2-1v16.2l-20.2,1l0.8,54.8c0.1,8.2,1.7,15,4.9,20.5c2.9,5,6.1,7.6,9.8,7.6c2.6,0,4.8-1.6,6.5-4.8s2.6-8,2.6-14.4
		c0-1.6,0-3.3-0.1-5.2l-3,0.8l-2.6-11.5l21.7-1.8L796.8,545.7z"/>
	<path class="st0" d="M858.1,580.5l-1.3,10.7l-20.1,2.9l1.6-15h2l1.2-33.5c0-1.6,0-3.4-0.1-5.2c-0.6-16-4.1-24.1-10.5-24.4
		c-4.1-0.1-7.7,3.6-11,11c-2.6,5.9-4.3,12-5,18.5c0.2,5.2,0.5,15.7,1.1,31.3l0.2,1.9l2.4,0.2l1.7,15.1l-20.5-0.3v-16.3h2.6
		c-0.2-6.3-1.2-48.8-2.9-127.7l-6.2-0.6l1.4-11.7l26.7,0.6l-3,13.9l-5.3-0.6l1,57.6c4.6-6.3,10.4-9.3,17.2-9.1
		c8.8,0.3,15.3,5.8,19.4,16.5c3.3,8.4,4.7,18.3,4.3,29.6l-1.2,34.1L858.1,580.5z"/>
	<path class="st0" d="M904.9,566c-5.5,1.9-10.7,2.9-15.7,2.9c-9.6,0-17.3-3.2-23.2-9.7c-5.5-6-8.3-13.4-8.3-22.2
		c0-8.1,2.5-15.5,7.4-22.1c5.5-7.5,13.4-13.1,23.5-16.5c5.5-1.9,10.8-2.9,15.8-2.9c9.6,0,17.3,3.2,23.2,9.7c5.5,6,8.3,13.4,8.3,22.1
		c0,8.1-2.5,15.5-7.3,22.3C923.1,557.1,915.2,562.5,904.9,566z M903.5,512c-3.5,0-7.2,0.6-11,1.9c-6.9,2.4-12.3,6-16.2,11
		c-3.5,4.4-5.3,8.8-5.3,13.3c0,4.6,2.3,8.3,7.1,11c3.7,2.2,7.7,3.2,12.1,3.2c3.5,0,7.3-0.7,11.1-2c6.8-2.4,12.2-6,16.2-11
		c3.5-4.4,5.2-8.8,5.2-13.3c0-4.6-2.3-8.3-7-11C911.9,513,907.9,512,903.5,512z"/>
	<path class="st0" d="M999.3,523.4l-7.7-0.3l-1,38c-0.3,12.1-2.9,21.4-7.9,28.1c-4.5,6.1-10.1,9.1-16.7,9.1c-7.1,0-13.3-3.3-18.6-10
		c-5.7-7.3-8.4-16.7-8.1-28.2l1-48.8l-3.8,0.5l-0.9-16.2l28,2.4l1.1,10.5l-10.7,1.3l-0.9,51.4c-0.7,6.2,0.4,11.3,3.1,15.4
		c2.4,3.7,5.4,5.5,8.9,5.5c3.3,0,6-1.7,8.2-5c2.4-3.8,3.7-9.1,3.9-16.1l0.9-38.6l-5.7-0.3l1.5-13.1l22.7,4.4L999.3,523.4z"/>
	<path class="st0" d="M1064.2,507.4l-1.2,10.5l-20.9-0.5l2-11h2.7c-1.4-9.9-5.8-14.9-13.3-14.9c-4.4,0-9.1,2.2-13.8,6.7
		c-4.8,4.5-7.2,9.1-7.2,13.8c0,7,5.8,11.9,17.3,14.5c10.3,2.3,18.1,6.5,23.3,12.6c4.6,5.3,6.9,11.5,6.9,18.8c0,8.6-3,16.5-8.9,23.6
		s-12.6,10.7-20.2,10.7c-7.3,0-13.6-3.3-19-9.9c-4.8-5.9-8-13.3-9.7-22l-3.3,1l-0.1-15l22.6-1.8l1.6,9.7l-7.3,2.1
		c2.6,13.1,7.7,19.7,15.2,19.7c3.2,0,6.6-1.9,10.1-5.6c3.5-3.7,5.2-7.7,5.2-11.9c0-7.9-6.4-13.3-19.3-16.2
		c-9.7-2.3-17-6.2-21.9-11.7c-4.2-5-6.3-10.9-6.3-17.8c0-9.3,3.5-17.9,10.6-25.8c7-7.9,15.1-11.9,24-11.9c7.9,0,14.3,3.2,19.3,9.6
		c4.7,6,7.3,13.4,7.9,22.4h3.7V507.4z"/>
	<path class="st0" d="M1117.3,536l-38.6-0.1c0.5,26,4.7,38.9,12.8,38.9c3,0,5.5-6.1,7.4-18.3h-4.5l-2-14.4l24.2,5.4l-1.1,9.4h-2.7
		c-0.5,3.7-1.2,7.1-1.9,10.2c-3.8,16-10.3,23.9-19.4,23.9c-9.9,0-17.1-6.6-21.6-19.9c-3.2-9.8-4.9-22.1-4.9-37
		c0-3.1,0.1-6.2,0.1-9.1c0.6-5.3,1.7-13.3,3.5-23.9c4.5-18.7,12.1-28.1,22.8-28.1C1107.6,473,1116.1,494,1117.3,536z M1104.3,523.1
		c-0.8-7.8-2.3-14.9-4.4-21.4c-2.5-8.4-5.4-12.6-8.4-12.6c-3.9,0-7.1,5.2-9.7,15.7c-1.7,7.1-2.8,14.2-3.1,21.3L1104.3,523.1z"/>
	<path class="st1" d="M574.1,503.5c0,12.1-4.4,21-13.2,26.8c-7,4.6-15.9,7-26.8,7c-2.8,0-5.5-0.2-8.1-0.5l-18.1,0.5v31.5l7.2,0.5
		l-2,14.9L490,580l0.5-12.3l3.8,0.2V468l36.9-1.5c11.1-0.4,20.7,2.1,28.6,7.6C569.3,480.8,574.1,490.6,574.1,503.5z M560.5,503.5
		c0-7.8-3.4-13.5-10.2-17.1c-5.1-2.8-11.3-4-18.5-3.7l-23.8,0.8v37.7l18.6-0.5c0.9,0.1,3,0.3,6.2,0.5
		C551.3,521.5,560.5,515.6,560.5,503.5z"/>
	<path class="st1" d="M642.4,517.5l-0.8,12.9l-23.2-4.5l3.9-7.9l4.2-0.2c0-1,0-2,0-3.1c0-12-2.3-18.1-6.8-18.3
		c-6.2-0.2-12.2,3.2-17.8,10.3c-5,6.3-8.3,13.3-10.1,21l-1.2,55.8l9.1-1l-2.8,12.5l-22.8,1.9l-0.8-11.7l3.8-0.5l2-94.3h-3.3
		l-1.8-10.2l24.8-2.7l-2.6,11.5l-3.7,0.3v6.2c7.6-10.7,16.8-15.8,27.6-15.4c7.2,0.3,12.5,4.3,16,12c2.6,5.9,3.9,13.4,3.9,22.5
		c0,1,0,1.9,0,2.9H642.4z"/>
	<path class="st1" d="M659.3,479.6c-1.9,0-3.8-0.3-5.6-1c-3.4-1.1-6.3-2.9-8.5-5.4s-3.3-5.1-3.3-7.8c0-3.1,1.2-5.5,3.8-7.1
		c2.1-1.4,4.5-2.1,7.3-2.1c1.8,0,3.7,0.3,5.6,0.8c3.4,1.2,6.3,3,8.5,5.6c2.2,2.5,3.3,5.2,3.3,7.8c0,3-1.3,5.4-4,7.1
		C664.4,478.9,662,479.6,659.3,479.6z M669.6,587.9l-23.7,0.5l-0.4-12.5h4.6l-1.2-75.3l-5.8,2.1l1.9-10.5l17.8-2.1l-0.3,5.7
		l1.2,80.8h5.2L669.6,587.9z"/>
	<path class="st1" d="M729.8,593.8l-22.3,4l-0.3-16.2h2.7l0.8-62.1c0-5.4-0.4-10.3-1.2-14.9c-0.9-5.5-2.4-9-4.3-10.5
		c-4.5,0-8.5,3.4-12,10c-2.9,5.5-4.9,11.6-5.9,18.1l0.4,52.8h3.3l0.5,13.2l-21.7-2.1l1.1-11.1h3.3l-0.4-90.2H670l-1.5-12.3l22.4-0.1
		l-0.9,11.1h-2.6v3.7c4.9-6.2,10.9-9.4,17.9-9.4c7.2,0,12.5,5.2,15.9,15.7c2.4,7.4,3.4,16.1,3.2,26.2l-0.8,61.4h3.9L729.8,593.8z"/>
	<path class="st1" d="M796.8,545.7l-4,1.1c0,1.2,0,2.5,0,3.9c0.4,13.1-1.6,23.4-6.1,30.7c-4,6.6-9.2,9.9-15.8,9.9
		c-7.3,0-13.8-3.9-19.4-11.8c-6.2-8.6-9.3-19.7-9.4-33.1l-0.8-54.3h-10.9v-16.2h10.9v-14.6h-4.1l-0.4-9.5l21.7-4.2l0.4,13.7l-4,0.2
		v14.4l20.2-1v16.2l-20.2,1l0.8,54.8c0.1,8.2,1.7,15,4.9,20.5c2.9,5,6.1,7.6,9.8,7.6c2.6,0,4.8-1.6,6.5-4.8s2.6-8,2.6-14.4
		c0-1.6,0-3.3-0.1-5.2l-3,0.8l-2.6-11.5l21.7-1.8L796.8,545.7z"/>
	<path class="st1" d="M858.1,580.5l-1.3,10.7l-20.1,2.9l1.6-15h2l1.2-33.5c0-1.6,0-3.4-0.1-5.2c-0.6-16-4.1-24.1-10.5-24.4
		c-4.1-0.1-7.7,3.6-11,11c-2.6,5.9-4.3,12-5,18.5c0.2,5.2,0.5,15.7,1.1,31.3l0.2,1.9l2.4,0.2l1.7,15.1l-20.5-0.3v-16.3h2.6
		c-0.2-6.3-1.2-48.8-2.9-127.7l-6.2-0.6l1.4-11.7l26.7,0.6l-3,13.9l-5.3-0.6l1,57.6c4.6-6.3,10.4-9.3,17.2-9.1
		c8.8,0.3,15.3,5.8,19.4,16.5c3.3,8.4,4.7,18.3,4.3,29.6l-1.2,34.1L858.1,580.5z"/>
	<path class="st1" d="M904.9,566c-5.5,1.9-10.7,2.9-15.7,2.9c-9.6,0-17.3-3.2-23.2-9.7c-5.5-6-8.3-13.4-8.3-22.2
		c0-8.1,2.5-15.5,7.4-22.1c5.5-7.5,13.4-13.1,23.5-16.5c5.5-1.9,10.8-2.9,15.8-2.9c9.6,0,17.3,3.2,23.2,9.7c5.5,6,8.3,13.4,8.3,22.1
		c0,8.1-2.5,15.5-7.3,22.3C923.1,557.1,915.2,562.5,904.9,566z M903.5,512c-3.5,0-7.2,0.6-11,1.9c-6.9,2.4-12.3,6-16.2,11
		c-3.5,4.4-5.3,8.8-5.3,13.3c0,4.6,2.3,8.3,7.1,11c3.7,2.2,7.7,3.2,12.1,3.2c3.5,0,7.3-0.7,11.1-2c6.8-2.4,12.2-6,16.2-11
		c3.5-4.4,5.2-8.8,5.2-13.3c0-4.6-2.3-8.3-7-11C911.9,513,907.9,512,903.5,512z"/>
	<path class="st1" d="M999.3,523.4l-7.7-0.3l-1,38c-0.3,12.1-2.9,21.4-7.9,28.1c-4.5,6.1-10.1,9.1-16.7,9.1c-7.1,0-13.3-3.3-18.6-10
		c-5.7-7.3-8.4-16.7-8.1-28.2l1-48.8l-3.8,0.5l-0.9-16.2l28,2.4l1.1,10.5l-10.7,1.3l-0.9,51.4c-0.7,6.2,0.4,11.3,3.1,15.4
		c2.4,3.7,5.4,5.5,8.9,5.5c3.3,0,6-1.7,8.2-5c2.4-3.8,3.7-9.1,3.9-16.1l0.9-38.6l-5.7-0.3l1.5-13.1l22.7,4.4L999.3,523.4z"/>
	<path class="st1" d="M1064.2,507.4l-1.2,10.5l-20.9-0.5l2-11h2.7c-1.4-9.9-5.8-14.9-13.3-14.9c-4.4,0-9.1,2.2-13.8,6.7
		c-4.8,4.5-7.2,9.1-7.2,13.8c0,7,5.8,11.9,17.3,14.5c10.3,2.3,18.1,6.5,23.3,12.6c4.6,5.3,6.9,11.5,6.9,18.8c0,8.6-3,16.5-8.9,23.6
		s-12.6,10.7-20.2,10.7c-7.3,0-13.6-3.3-19-9.9c-4.8-5.9-8-13.3-9.7-22l-3.3,1l-0.1-15l22.6-1.8l1.6,9.7l-7.3,2.1
		c2.6,13.1,7.7,19.7,15.2,19.7c3.2,0,6.6-1.9,10.1-5.6c3.5-3.7,5.2-7.7,5.2-11.9c0-7.9-6.4-13.3-19.3-16.2
		c-9.7-2.3-17-6.2-21.9-11.7c-4.2-5-6.3-10.9-6.3-17.8c0-9.3,3.5-17.9,10.6-25.8c7-7.9,15.1-11.9,24-11.9c7.9,0,14.3,3.2,19.3,9.6
		c4.7,6,7.3,13.4,7.9,22.4h3.7V507.4z"/>
	<path class="st1" d="M1117.3,536l-38.6-0.1c0.5,26,4.7,38.9,12.8,38.9c3,0,5.5-6.1,7.4-18.3h-4.5l-2-14.4l24.2,5.4l-1.1,9.4h-2.7
		c-0.5,3.7-1.2,7.1-1.9,10.2c-3.8,16-10.3,23.9-19.4,23.9c-9.9,0-17.1-6.6-21.6-19.9c-3.2-9.8-4.9-22.1-4.9-37
		c0-3.1,0.1-6.2,0.1-9.1c0.6-5.3,1.7-13.3,3.5-23.9c4.5-18.7,12.1-28.1,22.8-28.1C1107.6,473,1116.1,494,1117.3,536z M1104.3,523.1
		c-0.8-7.8-2.3-14.9-4.4-21.4c-2.5-8.4-5.4-12.6-8.4-12.6c-3.9,0-7.1,5.2-9.7,15.7c-1.7,7.1-2.8,14.2-3.1,21.3L1104.3,523.1z"/>
	<path class="st2" d="M98.7,163.2c-20-0.8-26.1-7.6-26.6-11.4c-0.5-4.6,4.6-9.9,16.9-9.4c8.1,0.3,24,5.1,39.7,19.2
		C128.1,161.7,114.9,163.9,98.7,163.2z M228,343.1c-51.2,6.2-59.1,23-58.2,30.4c0.9,7.9,8.6,12.7,16.9,13.1
		C196.5,387,218.7,380.7,228,343.1z M627.7,243.6c21.7,13.3,39.8,17.4,48,17.8c13.8,0.6,21.9-5.7,20.8-14.6
		c-1.1-9-10.9-17-25.9-17.6C660.7,228.8,644.8,231.9,627.7,243.6z M233.8,435.2c1.3,11.3,11.1,16.8,18,17c1,0,1.9,0.1,2.9,0.2
		c12.5,0.5,23.2-4,29.4-14.5c7.6-13,4.8-28,6.3-42.1c6.1-61.8,24.3-83.8,32.5-83.4c5.9,0.2,17.6,6.9,19.3,21.4
		c0.6,5.4-0.2,11-3.3,17.4c-2.6,5.7-6.2,11.1-5.4,17.7c1.2,9.9,10.6,17.1,24,17.6c20.9,0.8,26.3-5.1,25-16.1
		c-0.6-5.1-1.6-8.9-12.2-20.6c-4.3-4.8-8.9-10.1-9.5-15.1c-1.5-12.7,8.5-19.6,19-19.2c7.6,0.3,10.2,4.2,15.5,10.9
		c9.6,12.6,17.2,25.6,23.8,42.7c4.6,11.7,6.9,23.6,9.3,35.5c5.3,28,23.7,35.1,29.2,35.3c6,0.2,14.8-5.3,13.8-13.6
		c-0.9-8.1-6.4-12-26.2-37.6c-24.8-32.1-27.2-42.9-28.1-51c-1.7-14.1,6.2-18.7,15-18.3c13.3,0.5,16.8,12.8,22.8,21.6
		c8.1,12.2,15.6,20.5,23.4,20.8c12.1,0.5,17.6-4.7,16.9-10.9c-0.5-4.4-3.8-8.6-4.3-13c-0.8-6.9,4.9-11.7,19-11.2
		c22.1,0.9,42.4,12.9,45.9,42.2c2.2,18.6,8.5,21.5,21,22c18.2,0.7,25.6-7.5,24.9-13.2c-0.8-7-4.7-15.4-20.8-29.7
		c-7.2-6.3-15.5-11.9-22.5-18.4c-8-7.4-8.9-9.9-9.6-15.3c-1.3-10.9,8.2-18.9,23.1-18.3c11.7,0.4,37.3,9.7,48.7,19.3
		c9.4,8,12.1,17.7,16.6,26.9c12.7,25.8,35.5,35.5,45.2,35.9c10.2,0.4,24-5.3,21-30.2c-2-17-11.8-34.5-27.2-44.4
		c-11-7.1-31.2-13.1-41.8-13.5c-9.3-0.4-17.5,2.5-26.8,2.1c-29.6-1.2-43.1-15.3-43.6-20.1c-1.7-14.3,26.6-10.6,24.9-24.9
		c-0.6-4.8-4.1-9.3-14.3-14.1c-7.3-3.4-17-6.4-17.9-13.7c-0.5-4.2,1.4-8.7,12.2-13.8c18.6-8.8,61.7-16.9,86.9-15.9
		c13.7,0.6,27.2,5,40.9,5.5c7.8,0.3,16.2-5.4,14.8-17.5c-0.9-8.1-10.7-19-43.5-20.3c-50.9-2-73,21.1-96.1,32.5
		c-20.3,9.8-31.6,11.1-41.9,10.6c-20.1-0.8-26.5-8.1-27.2-13.6c-0.4-3,0.8-6.4,6.1-9.2c3.8-2,10.6-2.6,18.8-4.1
		c25.2-4.8,32-15.4,30.9-24.6c-1.1-9.9-8.2-14.9-16.8-15.3c-5.5-0.2-11.3,0.5-21,8.9c-14.8,12.2-20.9,12.4-26.8,12.1
		c-12.7-0.5-25.9-9.8-27-18.9c-0.7-6.1-0.8-10.7,6.7-26c4-8.3,10.1-14,9.2-21.8c-1.1-9.3-13.2-18.9-32.6-19.7
		c-12.3-0.5-21.3,2.8-27.1,12c-4.9,8-5.9,14.6-5.4,18.8c0.9,7.7,5.9,10.7,10.4,16.9c0.3,0.5,2.7,2.7,3.1,5.8
		c0.7,5.7-9.4,15.6-25.8,15c-6.2-0.3-6.5-2.1-13-5.9c-5-2.9-9.9-4.1-14.4-4.3c-15.2-0.6-20.7,7.9-27.1,15.3c-3.3,4-7.2,5.9-15,5.6
		c-10.3-0.4-17.3-5.8-17.7-9.7c-0.2-1.5-0.3-3-0.4-4.6c-0.8-6.8-4-14.7-12.8-24.9c-11.5-13.3-11.9-14.8-13.2-25.6
		c-0.9-7.5-0.7-14.9-1.6-22.4c-0.7-5.8-3.6-7.7-7.9-7.8c-10.7-0.4-18.2,6.3-17.6,10.8c0.5,4.5,4.4,6.8,9.6,12
		c13.3,13,15.1,18.6,15.8,24.3c1.2,10.4-8.1,18.4-6.9,28.7c0.8,6.9,7.7,13,8.5,19.9c0.6,5.1-4.4,8.9-10.8,8.7
		c-4.7-0.2-8.5-1.2-16.2-6.4c-12.1-8.2-19.1-15.9-23.1-23.8c-8.5-16.5-4.9-34.4-18.8-50.3c-6.7-7.6-15.2-11-21.8-11.2
		c-10.1-0.4-23.3,6.8-21,26c0.9,8.1,5.7,18.4,13,27C207.4,135,223,139,229.3,142c27.2,12.9,38,29.7,38.6,34.5
		c0.7,5.8-4.4,11-15.3,10.6c-6.7-0.3-15.1-1.5-33.3-9.9c-7.3-3.3-14.4-7.3-23-7.6c-12.8-0.5-15.7,3.7-15.2,8.3
		c0.5,4.4,4.3,8.9,12.5,11.1c14.8,4.3,30.1,1.9,44.9,6.6c7.4,2.1,9.7,5.5,10,8c0.3,2.7-0.8,5.2-6.9,7.2c-1.4,0.5-20.1,4.4-43,7.1
		c-18.8,2.2-22.7,2.4-46,2.4c-53.4-0.2-61.8,13.4-60.3,26.2c1.9,15.8,21.6,28.8,39.6,29.5c27.9,1.1,36.4-16,50.5-27.9
		c11.1-9.5,16.2-9.8,19.7-9.6c5.9,0.2,12,4.6,12.8,11.5c0.6,5.4-2.3,11.8-13.2,17.7c-14.7,7.6-34.4,8.1-49.6,15.1
		c-8.3,3.8-10.3,8.3-9.9,11.8c0.8,7,13.6,15.9,21.2,16.2c4.1,0.2,15-0.2,37.2-23.3c12.4-12.7,14.8-16.6,24.4-16.3
		c9.8,0.4,21.2,8.2,22.2,16.6c0.7,5.5-2.8,10.3-2.1,15.9c0.5,4.2,6.2,9.7,20.7,10.3c4.4,0.2,8.7-1.4,10.6-3.5
		c4.1-4,2.2-12,13.1-11.6c5.6,0.2,8.3,2.6,8.6,4.9c0.1,1.2,0,3.2-7,24.3c-11.7,35.2-16.1,44.2-47.9,84
		C233.1,424.3,233,428.3,233.8,435.2z"/>
	<path class="st3" d="M98.7,163.2c-20-0.8-26.1-7.6-26.6-11.4c-0.5-4.6,4.6-9.9,16.9-9.4c8.1,0.3,24,5.1,39.7,19.2
		C128.1,161.7,114.9,163.9,98.7,163.2z M228,343.1c-51.2,6.2-59.1,23-58.2,30.4c0.9,7.9,8.6,12.7,16.9,13.1
		C196.5,387,218.7,380.7,228,343.1z M627.7,243.6c21.7,13.3,39.8,17.4,48,17.8c13.8,0.6,21.9-5.7,20.8-14.6
		c-1.1-9-10.9-17-25.9-17.6C660.7,228.8,644.8,231.9,627.7,243.6z M233.8,435.2c1.3,11.3,11.1,16.8,18,17c1,0,1.9,0.1,2.9,0.2
		c12.5,0.5,23.2-4,29.4-14.5c7.6-13,4.8-28,6.3-42.1c6.1-61.8,24.3-83.8,32.5-83.4c5.9,0.2,17.6,6.9,19.3,21.4
		c0.6,5.4-0.2,11-3.3,17.4c-2.6,5.7-6.2,11.1-5.4,17.7c1.2,9.9,10.6,17.1,24,17.6c20.9,0.8,26.3-5.1,25-16.1
		c-0.6-5.1-1.6-8.9-12.2-20.6c-4.3-4.8-8.9-10.1-9.5-15.1c-1.5-12.7,8.5-19.6,19-19.2c7.6,0.3,10.2,4.2,15.5,10.9
		c9.6,12.6,17.2,25.6,23.8,42.7c4.6,11.7,6.9,23.6,9.3,35.5c5.3,28,23.7,35.1,29.2,35.3c6,0.2,14.8-5.3,13.8-13.6
		c-0.9-8.1-6.4-12-26.2-37.6c-24.8-32.1-27.2-42.9-28.1-51c-1.7-14.1,6.2-18.7,15-18.3c13.3,0.5,16.8,12.8,22.8,21.6
		c8.1,12.2,15.6,20.5,23.4,20.8c12.1,0.5,17.6-4.7,16.9-10.9c-0.5-4.4-3.8-8.6-4.3-13c-0.8-6.9,4.9-11.7,19-11.2
		c22.1,0.9,42.4,12.9,45.9,42.2c2.2,18.6,8.5,21.5,21,22c18.2,0.7,25.6-7.5,24.9-13.2c-0.8-7-4.7-15.4-20.8-29.7
		c-7.2-6.3-15.5-11.9-22.5-18.4c-8-7.4-8.9-9.9-9.6-15.3c-1.3-10.9,8.2-18.9,23.1-18.3c11.7,0.4,37.3,9.7,48.7,19.3
		c9.4,8,12.1,17.7,16.6,26.9c12.7,25.8,35.5,35.5,45.2,35.9c10.2,0.4,24-5.3,21-30.2c-2-17-11.8-34.5-27.2-44.4
		c-11-7.1-31.2-13.1-41.8-13.5c-9.3-0.4-17.5,2.5-26.8,2.1c-29.6-1.2-43.1-15.3-43.6-20.1c-1.7-14.3,26.6-10.6,24.9-24.9
		c-0.6-4.8-4.1-9.3-14.3-14.1c-7.3-3.4-17-6.4-17.9-13.7c-0.5-4.2,1.4-8.7,12.2-13.8c18.6-8.8,61.7-16.9,86.9-15.9
		c13.7,0.6,27.2,5,40.9,5.5c7.8,0.3,16.2-5.4,14.8-17.5c-0.9-8.1-10.7-19-43.5-20.3c-50.9-2-73,21.1-96.1,32.5
		c-20.3,9.8-31.6,11.1-41.9,10.6c-20.1-0.8-26.5-8.1-27.2-13.6c-0.4-3,0.8-6.4,6.1-9.2c3.8-2,10.6-2.6,18.8-4.1
		c25.2-4.8,32-15.4,30.9-24.6c-1.1-9.9-8.2-14.9-16.8-15.3c-5.5-0.2-11.3,0.5-21,8.9c-14.8,12.2-20.9,12.4-26.8,12.1
		c-12.7-0.5-25.9-9.8-27-18.9c-0.7-6.1-0.8-10.7,6.7-26c4-8.3,10.1-14,9.2-21.8c-1.1-9.3-13.2-18.9-32.6-19.7
		c-12.3-0.5-21.3,2.8-27.1,12c-4.9,8-5.9,14.6-5.4,18.8c0.9,7.7,5.9,10.7,10.4,16.9c0.3,0.5,2.7,2.7,3.1,5.8
		c0.7,5.7-9.4,15.6-25.8,15c-6.2-0.3-6.5-2.1-13-5.9c-5-2.9-9.9-4.1-14.4-4.3c-15.2-0.6-20.7,7.9-27.1,15.3c-3.3,4-7.2,5.9-15,5.6
		c-10.3-0.4-17.3-5.8-17.7-9.7c-0.2-1.5-0.3-3-0.4-4.6c-0.8-6.8-4-14.7-12.8-24.9c-11.5-13.3-11.9-14.8-13.2-25.6
		c-0.9-7.5-0.7-14.9-1.6-22.4c-0.7-5.8-3.6-7.7-7.9-7.8c-10.7-0.4-18.2,6.3-17.6,10.8c0.5,4.5,4.4,6.8,9.6,12
		c13.3,13,15.1,18.6,15.8,24.3c1.2,10.4-8.1,18.4-6.9,28.7c0.8,6.9,7.7,13,8.5,19.9c0.6,5.1-4.4,8.9-10.8,8.7
		c-4.7-0.2-8.5-1.2-16.2-6.4c-12.1-8.2-19.1-15.9-23.1-23.8c-8.5-16.5-4.9-34.4-18.8-50.3c-6.7-7.6-15.2-11-21.8-11.2
		c-10.1-0.4-23.3,6.8-21,26c0.9,8.1,5.7,18.4,13,27C207.4,135,223,139,229.3,142c27.2,12.9,38,29.7,38.6,34.5
		c0.7,5.8-4.4,11-15.3,10.6c-6.7-0.3-15.1-1.5-33.3-9.9c-7.3-3.3-14.4-7.3-23-7.6c-12.8-0.5-15.7,3.7-15.2,8.3
		c0.5,4.4,4.3,8.9,12.5,11.1c14.8,4.3,30.1,1.9,44.9,6.6c7.4,2.1,9.7,5.5,10,8c0.3,2.7-0.8,5.2-6.9,7.2c-1.4,0.5-20.1,4.4-43,7.1
		c-18.8,2.2-22.7,2.4-46,2.4c-53.4-0.2-61.8,13.4-60.3,26.2c1.9,15.8,21.6,28.8,39.6,29.5c27.9,1.1,36.4-16,50.5-27.9
		c11.1-9.5,16.2-9.8,19.7-9.6c5.9,0.2,12,4.6,12.8,11.5c0.6,5.4-2.3,11.8-13.2,17.7c-14.7,7.6-34.4,8.1-49.6,15.1
		c-8.3,3.8-10.3,8.3-9.9,11.8c0.8,7,13.6,15.9,21.2,16.2c4.1,0.2,15-0.2,37.2-23.3c12.4-12.7,14.8-16.6,24.4-16.3
		c9.8,0.4,21.2,8.2,22.2,16.6c0.7,5.5-2.8,10.3-2.1,15.9c0.5,4.2,6.2,9.7,20.7,10.3c4.4,0.2,8.7-1.4,10.6-3.5
		c4.1-4,2.2-12,13.1-11.6c5.6,0.2,8.3,2.6,8.6,4.9c0.1,1.2,0,3.2-7,24.3c-11.7,35.2-16.1,44.2-47.9,84
		C233.1,424.3,233,428.3,233.8,435.2z"/>
	<path class="st4" d="M516.6,409.4l-3.2,19.8l-54.2,2.3v-15.2l10.2-1.3l-13.9-124.6L385,434.5l-82.8-171.9l-8.3,136.2l16.4,1.5
		l8.3,22.8l-56.7-6.5l2.7-20.1l4.8,0.5l14.2-229.6l101.7,211l85.2-174.7l23.2,208.4L516.6,409.4z"/>
	<path class="st1" d="M516.6,409.4l-3.2,19.8l-54.2,2.3v-15.2l10.2-1.3l-13.9-124.6L385,434.5l-82.8-171.9l-8.3,136.2l16.4,1.5
		l8.3,22.8l-56.7-6.5l2.7-20.1l4.8,0.5l14.2-229.6l101.7,211l85.2-174.7l23.2,208.4L516.6,409.4z"/>
	<path class="st5" d="M580.9,424.7l-23.8-2.6v-11.8l2.4-0.2v-3.3c-4.6,2.7-9.5,4.1-14.7,4.1c-6.9,0-13.1-2.2-18.3-6.7
		c-5.7-4.9-8.5-11.1-8.5-18.5s2.8-13.6,8.5-18.5c5.2-4.6,11.4-6.9,18.3-6.9c4.8,0,9.2,1.1,13.4,3.4V349c-0.1-0.5-0.2-1.6-0.5-3.6
		c-1.6-11.7-5.2-17.5-10.7-17.5c-5.1,0-8.7,4.5-10.7,13.4l5.7,1.3l-1.2,8.8l-27.4,1l3.1-15.9l5.4,1.3c1.8-8.6,4.9-15.3,9.5-20
		c4.2-4.2,9-6.4,14.4-6.4c6.9,0,13,3.2,18,9.6c5.6,7,8.5,16.1,9,27.2l1.6,60.4l5.8-0.5L580.9,424.7z M558.8,385.8
		c0-2.9-1.9-5.3-5.7-7c-2.9-1.3-5.8-2-8.8-2c-4.6,0-8.2,1.1-11,3.3c-2.4,1.7-3.6,3.6-3.6,5.7c0,2,1.2,3.9,3.6,5.7
		c2.8,2.1,6.5,3.1,11,3.1c3,0,5.9-0.6,8.8-2C556.9,391.1,558.8,388.8,558.8,385.8z"/>
	<path class="st5" d="M669.7,402.7l-2.7,14.9h-24.7l-1.2-7.4l4.6-1.3V404c-7.5,6.3-16.3,9.5-26.5,9.5c-10.1,0-18.8-3-26.2-9.2
		c-7.8-6.5-11.8-14.8-11.8-24.7c0-9.9,3.9-18.2,11.8-24.9c7.4-6.1,16.2-9.2,26.2-9.2s18.7,3,26.1,9.2l-0.4-70.8l-5.7-0.3l0.6-14.7
		l28.9,7l-3.9,9l-5-0.2l0.9,120.4L669.7,402.7z M645.3,379.6c0-4.4-2.3-8.3-6.8-11.8c-5.1-3.9-11.5-5.9-19.3-5.9
		c-7.7,0-14.1,2-19.2,5.9c-4.6,3.5-6.8,7.4-6.8,11.8c0,4.3,2.3,8.2,6.8,11.8c5,3.8,11.4,5.7,19.2,5.7s14.3-1.9,19.3-5.7
		C643,387.8,645.3,383.9,645.3,379.6z"/>
	<path class="st5" d="M741.5,338.2l-1.3,10.6l-23-0.5l2.2-11.1h3c-1.5-10-6.4-15.1-14.6-15.1c-4.9,0-9.9,2.3-15.2,6.8
		s-7.9,9.2-7.9,14c0,7.1,6.3,12,18.9,14.7c11.3,2.3,19.9,6.5,25.6,12.8c5.1,5.3,7.6,11.7,7.6,19c0,8.7-3.3,16.7-9.7,23.9
		c-6.5,7.2-13.9,10.8-22.2,10.8c-8,0-14.9-3.3-20.8-10c-5.3-6-8.8-13.4-10.6-22.2l-3.6,1l-0.2-15.2l24.9-1.8l1.8,9.8l-8.1,2.1
		c2.9,13.3,8.5,19.9,16.7,19.9c3.6,0,7.3-1.9,11.1-5.6c3.8-3.8,5.7-7.8,5.7-12c0-8-7.1-13.4-21.2-16.3c-10.6-2.3-18.6-6.2-24-11.8
		c-4.7-5-7-11-7-18c0-9.4,3.9-18.1,11.6-26.1c7.8-8,16.6-12,26.4-12c8.7,0,15.7,3.2,21.2,9.7c5.2,6,8.1,13.6,8.7,22.7L741.5,338.2
		L741.5,338.2z"/>
	<path class="st5" d="M799.8,367.2l-42.3-0.1c0.5,26.3,5.2,39.4,14,39.4c3.4,0,6.1-6.1,8.2-18.5h-4.9l-2.2-14.6l26.5,5.4l-1.2,9.5
		h-3c-0.6,3.7-1.3,7.1-2.1,10.3c-4.2,16.1-11.3,24.2-21.3,24.2c-10.8,0-18.7-6.7-23.7-20.1c-3.6-9.9-5.4-22.4-5.4-37.4
		c0-3.2,0-6.2,0.2-9.2c0.6-5.3,1.9-13.4,3.9-24.2c5-19,13.3-28.4,25-28.4C789,303.4,798.5,324.6,799.8,367.2z M785.5,354.1
		c-0.9-7.9-2.5-15.1-4.8-21.6c-2.8-8.5-5.9-12.8-9.2-12.8c-4.3,0-7.8,5.3-10.6,15.9c-1.9,7.2-3,14.4-3.4,21.6L785.5,354.1z"/>
	<path class="st5" d="M866.1,425.6l-24.4,4.1l-0.3-16.4h3l0.9-62.8c0-5.4-0.4-10.5-1.3-15c-1-5.6-2.6-9.1-4.8-10.6
		c-4.9,0-9.3,3.4-13.2,10.1c-3.2,5.6-5.3,11.7-6.4,18.4l0.4,53.5h3.6l0.6,13.4l-23.8-2.2l1.2-11.2h3.6l-0.5-91.3h-4.2l-1.7-12.4
		l24.6-0.1l-1,11.3h-2.8v3.8c5.4-6.3,11.9-9.5,19.6-9.5c8,0,13.8,5.3,17.4,15.9c2.6,7.5,3.8,16.3,3.6,26.5l-0.9,62.2h4.3
		L866.1,425.6z"/>
	<path class="st6" d="M894.4,295.4c0.3,3.5,0.5,6.8,0.5,10c0,11.9-2.3,20-7.1,24.4c-2,1.7-4.3,2.7-7.1,2.8l-0.5-6.2
		c3.9-0.4,5.9-3,5.9-7.8c0-2.1-0.4-4.6-1.1-7.5c-1.5,0.5-3.1,0.8-4.7,0.8c-3.2,0-6-1.1-8.3-3.4c-2.4-2.2-3.7-5.1-4-8.6
		c-0.5-4.8,0.9-8.8,4.2-12.1c2.9-3,6.2-4.4,9.8-4.4c3.2,0,6,1.1,8.3,3.4C892.7,289,894,291.9,894.4,295.4z"/>
	<path class="st5" d="M971.7,338.2l-1.3,10.6l-22.9-0.5l2.2-11.1h3c-1.5-10-6.4-15.1-14.6-15.1c-4.9,0-9.9,2.3-15.2,6.8
		s-7.9,9.2-7.9,14c0,7.1,6.3,12,18.9,14.7c11.4,2.3,19.9,6.5,25.7,12.8c5.1,5.3,7.6,11.7,7.6,19c0,8.7-3.2,16.7-9.7,23.9
		c-6.5,7.2-13.9,10.8-22.1,10.8c-8,0-14.9-3.3-20.8-10c-5.3-6-8.8-13.4-10.6-22.2l-3.6,1l-0.2-15.2l24.9-1.8l1.8,9.8l-8,2.1
		c2.9,13.3,8.4,19.9,16.7,19.9c3.6,0,7.3-1.9,11.1-5.6c3.8-3.8,5.7-7.8,5.7-12c0-8-7.1-13.4-21.2-16.3c-10.6-2.3-18.6-6.2-24-11.8
		c-4.7-5-7-11-7-18c0-9.4,3.9-18.1,11.6-26.1c7.7-8,16.5-12,26.3-12c8.7,0,15.7,3.2,21.2,9.7c5.2,6,8,13.6,8.6,22.7L971.7,338.2
		L971.7,338.2z"/>
	<path class="st1" d="M580.9,424.7l-23.8-2.6v-11.8l2.4-0.2v-3.3c-4.6,2.7-9.5,4.1-14.7,4.1c-6.9,0-13.1-2.2-18.3-6.7
		c-5.7-4.9-8.5-11.1-8.5-18.5s2.8-13.6,8.5-18.5c5.2-4.6,11.4-6.9,18.3-6.9c4.8,0,9.2,1.1,13.4,3.4V349c-0.1-0.5-0.2-1.6-0.5-3.6
		c-1.6-11.7-5.2-17.5-10.7-17.5c-5.1,0-8.7,4.5-10.7,13.4l5.7,1.3l-1.2,8.8l-27.4,1l3.1-15.9l5.4,1.3c1.8-8.6,4.9-15.3,9.5-20
		c4.2-4.2,9-6.4,14.4-6.4c6.9,0,13,3.2,18,9.6c5.6,7,8.5,16.1,9,27.2l1.6,60.4l5.8-0.5L580.9,424.7z M558.8,385.8
		c0-2.9-1.9-5.3-5.7-7c-2.9-1.3-5.8-2-8.8-2c-4.6,0-8.2,1.1-11,3.3c-2.4,1.7-3.6,3.6-3.6,5.7c0,2,1.2,3.9,3.6,5.7
		c2.8,2.1,6.5,3.1,11,3.1c3,0,5.9-0.6,8.8-2C556.9,391.1,558.8,388.8,558.8,385.8z"/>
	<path class="st1" d="M669.7,402.7l-2.7,14.9h-24.7l-1.2-7.4l4.6-1.3V404c-7.5,6.3-16.3,9.5-26.5,9.5c-10.1,0-18.8-3-26.2-9.2
		c-7.8-6.5-11.8-14.8-11.8-24.7c0-9.9,3.9-18.2,11.8-24.9c7.4-6.1,16.2-9.2,26.2-9.2s18.7,3,26.1,9.2l-0.4-70.8l-5.7-0.3l0.6-14.7
		l28.9,7l-3.9,9l-5-0.2l0.9,120.4L669.7,402.7z M645.3,379.6c0-4.4-2.3-8.3-6.8-11.8c-5.1-3.9-11.5-5.9-19.3-5.9
		c-7.7,0-14.1,2-19.2,5.9c-4.6,3.5-6.8,7.4-6.8,11.8c0,4.3,2.3,8.2,6.8,11.8c5,3.8,11.4,5.7,19.2,5.7s14.3-1.9,19.3-5.7
		C643,387.8,645.3,383.9,645.3,379.6z"/>
	<path class="st1" d="M741.5,338.2l-1.3,10.6l-23-0.5l2.2-11.1h3c-1.5-10-6.4-15.1-14.6-15.1c-4.9,0-9.9,2.3-15.2,6.8
		s-7.9,9.2-7.9,14c0,7.1,6.3,12,18.9,14.7c11.3,2.3,19.9,6.5,25.6,12.8c5.1,5.3,7.6,11.7,7.6,19c0,8.7-3.3,16.7-9.7,23.9
		c-6.5,7.2-13.9,10.8-22.2,10.8c-8,0-14.9-3.3-20.8-10c-5.3-6-8.8-13.4-10.6-22.2l-3.6,1l-0.2-15.2l24.9-1.8l1.8,9.8l-8.1,2.1
		c2.9,13.3,8.5,19.9,16.7,19.9c3.6,0,7.3-1.9,11.1-5.6c3.8-3.8,5.7-7.8,5.7-12c0-8-7.1-13.4-21.2-16.3c-10.6-2.3-18.6-6.2-24-11.8
		c-4.7-5-7-11-7-18c0-9.4,3.9-18.1,11.6-26.1c7.8-8,16.6-12,26.4-12c8.7,0,15.7,3.2,21.2,9.7c5.2,6,8.1,13.6,8.7,22.7L741.5,338.2
		L741.5,338.2z"/>
	<path class="st1" d="M799.8,367.2l-42.3-0.1c0.5,26.3,5.2,39.4,14,39.4c3.4,0,6.1-6.1,8.2-18.5h-4.9l-2.2-14.6l26.5,5.4l-1.2,9.5
		h-3c-0.6,3.7-1.3,7.1-2.1,10.3c-4.2,16.1-11.3,24.2-21.3,24.2c-10.8,0-18.7-6.7-23.7-20.1c-3.6-9.9-5.4-22.4-5.4-37.4
		c0-3.2,0-6.2,0.2-9.2c0.6-5.3,1.9-13.4,3.9-24.2c5-19,13.3-28.4,25-28.4C789,303.4,798.5,324.6,799.8,367.2z M785.5,354.1
		c-0.9-7.9-2.5-15.1-4.8-21.6c-2.8-8.5-5.9-12.8-9.2-12.8c-4.3,0-7.8,5.3-10.6,15.9c-1.9,7.2-3,14.4-3.4,21.6L785.5,354.1z"/>
	<path class="st1" d="M866.1,425.6l-24.4,4.1l-0.3-16.4h3l0.9-62.8c0-5.4-0.4-10.5-1.3-15c-1-5.6-2.6-9.1-4.8-10.6
		c-4.9,0-9.3,3.4-13.2,10.1c-3.2,5.6-5.3,11.7-6.4,18.4l0.4,53.5h3.6l0.6,13.4l-23.8-2.2l1.2-11.2h3.6l-0.5-91.3h-4.2l-1.7-12.4
		l24.6-0.1l-1,11.3h-2.8v3.8c5.4-6.3,11.9-9.5,19.6-9.5c8,0,13.8,5.3,17.4,15.9c2.6,7.5,3.8,16.3,3.6,26.5l-0.9,62.2h4.3
		L866.1,425.6z"/>
	<path class="st1" d="M898.7,295.5c0.4,3.5,0.6,6.8,0.6,10c0,11.9-2.9,20-8.8,24.4c-2.5,1.7-5.4,2.7-8.8,2.8l-0.6-6.2
		c4.9-0.4,7.3-3,7.3-7.9c0-2.1-0.4-4.6-1.3-7.5c-1.9,0.5-3.8,0.8-5.8,0.8c-4,0-7.4-1.1-10.4-3.4c-2.9-2.2-4.6-5.1-5-8.6
		c-0.6-4.8,1.1-8.8,5.2-12.1c3.6-3,7.7-4.4,12.2-4.4c4,0,7.4,1.1,10.4,3.4C896.6,289.1,898.3,292,898.7,295.5z"/>
	<path class="st1" d="M971.7,338.2l-1.3,10.6l-22.9-0.5l2.2-11.1h3c-1.5-10-6.4-15.1-14.6-15.1c-4.9,0-9.9,2.3-15.2,6.8
		s-7.9,9.2-7.9,14c0,7.1,6.3,12,18.9,14.7c11.4,2.3,19.9,6.5,25.7,12.8c5.1,5.3,7.6,11.7,7.6,19c0,8.7-3.2,16.7-9.7,23.9
		c-6.5,7.2-13.9,10.8-22.1,10.8c-8,0-14.9-3.3-20.8-10c-5.3-6-8.8-13.4-10.6-22.2l-3.6,1l-0.2-15.2l24.9-1.8l1.8,9.8l-8,2.1
		c2.9,13.3,8.4,19.9,16.7,19.9c3.6,0,7.3-1.9,11.1-5.6c3.8-3.8,5.7-7.8,5.7-12c0-8-7.1-13.4-21.2-16.3c-10.6-2.3-18.6-6.2-24-11.8
		c-4.7-5-7-11-7-18c0-9.4,3.9-18.1,11.6-26.1c7.7-8,16.5-12,26.3-12c8.7,0,15.7,3.2,21.2,9.7c5.2,6,8,13.6,8.6,22.7L971.7,338.2
		L971.7,338.2z"/>
	<g>
		<g>
			<g>
				<polyline class="st7" points="660.4,264.5 373,77.5 85.6,264.5 				"/>
			</g>
			<g>
				<polygon class="st8" points="83.1,235 109.2,249.1 373,105.8 373,77.5 				"/>
				<line class="st9" x1="168.1" y1="188.8" x2="179.1" y2="211.2"/>
				<line class="st9" x1="191.4" y1="176.1" x2="202.5" y2="198.5"/>
				<line class="st9" x1="261.4" y1="138.1" x2="272.4" y2="160.5"/>
				<line class="st9" x1="284.7" y1="125.5" x2="295.7" y2="147.8"/>
				<line class="st9" x1="308" y1="112.8" x2="319" y2="135.2"/>
				<line class="st9" x1="331.3" y1="100.1" x2="342.3" y2="122.5"/>
				<line class="st9" x1="354.6" y1="87.5" x2="365.6" y2="109.8"/>
				<polygon class="st10" points="662.9,235 636.8,249.1 373,105.8 373,77.5 				"/>
				<line class="st11" x1="647.8" y1="226.8" x2="636.8" y2="249.1"/>
				<line class="st11" x1="624.5" y1="214.1" x2="613.5" y2="236.5"/>
				<line class="st11" x1="601.2" y1="201.5" x2="590.2" y2="223.8"/>
				<line class="st11" x1="577.9" y1="188.8" x2="566.9" y2="211.2"/>
				<line class="st11" x1="554.6" y1="176.1" x2="543.6" y2="198.5"/>
				<line class="st11" x1="484.6" y1="138.1" x2="473.6" y2="160.5"/>
				<line class="st11" x1="461.3" y1="125.5" x2="450.3" y2="147.8"/>
				<line class="st11" x1="438" y1="112.8" x2="427" y2="135.2"/>
				<line class="st11" x1="414.7" y1="100.1" x2="403.7" y2="122.5"/>
				<line class="st11" x1="391.4" y1="87.5" x2="380.4" y2="109.8"/>
				<line class="st9" x1="119.7" y1="218.4" x2="130.7" y2="240.8"/>
				<line class="st9" x1="143" y1="205.8" x2="154" y2="228.1"/>
			</g>
		</g>
		<g>
			<g>
				<line class="st9" x1="213.6" y1="163.2" x2="224.6" y2="185.5"/>
				<line class="st9" x1="236.9" y1="150.5" x2="247.9" y2="172.8"/>
			</g>
			<line class="st11" x1="529.9" y1="162.3" x2="518.9" y2="184.6"/>
			<line class="st11" x1="506.6" y1="149.6" x2="495.6" y2="171.9"/>
		</g>
	</g>
</g>
</svg>
